{"asset":{"version":"2.0","generator":"DSH 送药机器人参数化建模 v1"},"scene":0,"scenes":[{"name":"送药机器人","nodes":[0,1,2,3,31,61]}],"nodes":[{"name":"底盘外壳","translation":[0,0.1675,0],"mesh":0},{"name":"底盘下缘","translation":[0,0.107,0],"mesh":1},{"name":"底盘腰线","translation":[0,0.228,0],"mesh":2},{"name":"万向轮组","translation":[0.0,0.0,0.0],"children":[4,13,22]},{"name":"轮组1","translation":[0.0,0.0,0.148],"rotation":[0.0,-0.7071067811865476,0.0,0.7071067811865476],"children":[5,6,7,8,9,10,11,12]},{"name":"轮架板","translation":[0,0.089,0],"mesh":3},{"name":"立柱","translation":[0,0.054,0],"mesh":4},{"name":"叉架","translation":[0,0.04,0],"mesh":5},{"name":"轮轴","translation":[0.029,0.036,0],"rotation":[0.0,0.0,-0.7071067811865476,0.7071067811865476],"mesh":6},{"name":"轮毂","translation":[-0.007,0.036,0],"rotation":[0.0,0.0,-0.7071067811865476,0.7071067811865476],"mesh":7},{"name":"轮胎1","translation":[-0.0305,0.036,0],"rotation":[0.0,0.0,-0.7071067811865476,0.7071067811865476],"mesh":8},{"name":"轮胎3","translation":[0.0095,0.036,0],"rotation":[0.0,0.0,-0.7071067811865476,0.7071067811865476],"mesh":8},{"name":"轮辋","translation":[0,0.036,0],"rotation":[0.7071067811865476,0.0,0.0,0.7071067811865476],"mesh":9},{"name":"轮组2","translation":[-0.128172,0.0,-0.074],"rotation":[0.0,-0.9659258262890683,0.0,-0.25881904510252085],"children":[14,15,16,17,18,19,20,21]},{"name":"轮架板","translation":[0,0.089,0],"mesh":3},{"name":"立柱","translation":[0,0.054,0],"mesh":4},{"name":"叉架","translation":[0,0.04,0],"mesh":5},{"name":"轮轴","translation":[0.029,0.036,0],"rotation":[0.0,0.0,-0.7071067811865476,0.7071067811865476],"mesh":6},{"name":"轮毂","translation":[-0.007,0.036,0],"rotation":[0.0,0.0,-0.7071067811865476,0.7071067811865476],"mesh":7},{"name":"轮胎1","translation":[-0.0305,0.036,0],"rotation":[0.0,0.0,-0.7071067811865476,0.7071067811865476],"mesh":8},{"name":"轮胎3","translation":[0.0095,0.036,0],"rotation":[0.0,0.0,-0.7071067811865476,0.7071067811865476],"mesh":8},{"name":"轮辋","translation":[0,0.036,0],"rotation":[0.7071067811865476,0.0,0.0,0.7071067811865476],"mesh":9},{"name":"轮组3","translation":[0.128172,0.0,-0.074],"rotation":[0.0,-0.258819045102521,0.0,-0.9659258262890682],"children":[23,24,25,26,27,28,29,30]},{"name":"轮架板","translation":[0,0.089,0],"mesh":3},{"name":"立柱","translation":[0,0.054,0],"mesh":4},{"name":"叉架","translation":[0,0.04,0],"mesh":5},{"name":"轮轴","translation":[0.029,0.036,0],"rotation":[0.0,0.0,-0.7071067811865476,0.7071067811865476],"mesh":6},{"name":"轮毂","translation":[-0.007,0.036,0],"rotation":[0.0,0.0,-0.7071067811865476,0.7071067811865476],"mesh":7},{"name":"轮胎1","translation":[-0.0305,0.036,0],"rotation":[0.0,0.0,-0.7071067811865476,0.7071067811865476],"mesh":8},{"name":"轮胎3","translation":[0.0095,0.036,0],"rotation":[0.0,0.0,-0.7071067811865476,0.7071067811865476],"mesh":8},{"name":"轮辋","translation":[0,0.036,0],"rotation":[0.7071067811865476,0.0,0.0,0.7071067811865476],"mesh":9},{"name":"机身","translation":[0.0,0.0,0.0],"children":[32,33,34,35,36,37,38,40,41,42,49,50,54,55,56,57,58,59,60]},{"name":"柜体","translation":[0,0.47,0],"mesh":10},{"name":"前脸围边","translation":[0,0.675,0.212],"mesh":11},{"name":"前脸围边下","translation":[0,0.313,0.212],"mesh":11},{"name":"前脸围边左","translation":[-0.189,0.492,0.212],"mesh":12},{"name":"前脸围边右","translation":[0.189,0.492,0.212],"mesh":12},{"name":"屏幕玻璃","translation":[0,0.492,0.222],"mesh":13},{"name":"屏幕画面","translation":[0,0.492,0.2345],"children":[39]},{"name":"画面","translation":[0,0,0],"mesh":14},{"name":"画面外框上","translation":[0.128,0.321,0.216],"mesh":15},{"name":"屏幕压条","translation":[0,0.329,0.218],"mesh":16},{"name":"木拉手","translation":[0.0,0.0,0.0],"children":[43,44,45,46,47,48]},{"name":"木棒1","translation":[0.15,0.685,0.152],"rotation":[0.0,0.0,-0.7071067811865476,0.7071067811865476],"mesh":17},{"name":"支架1_1","translation":[-0.108,0.655,0.122],"mesh":18},{"name":"支架1_3","translation":[0.108,0.655,0.122],"mesh":18},{"name":"木棒2","translation":[0.15,0.643,0.168],"rotation":[0.0,0.0,-0.7071067811865476,0.7071067811865476],"mesh":17},{"name":"支架2_1","translation":[-0.108,0.613,0.138],"mesh":18},{"name":"支架2_3","translation":[0.108,0.613,0.138],"mesh":18},{"name":"拉手底座","translation":[0,0.66,0.198],"mesh":19},{"name":"侧推杆","translation":[0.0,0.0,0.0],"children":[51,52,53]},{"name":"推杆","translation":[0.236,0.3,-0.062],"mesh":20},{"name":"推杆头","translation":[0.25,0.3,-0.128],"mesh":21},{"name":"推杆轴","translation":[0.194,0.3,0.03],"rotation":[0.0,0.0,-0.7071067811865476,0.7071067811865476],"mesh":22},{"name":"背板格栅","translation":[0,0.52,-0.212],"mesh":23},{"name":"格栅条0","translation":[0,0.43,-0.22],"mesh":24},{"name":"格栅条1","translation":[0,0.475,-0.22],"mesh":24},{"name":"格栅条2","translation":[0,0.52,-0.22],"mesh":24},{"name":"格栅条3","translation":[0,0.565,-0.22],"mesh":24},{"name":"格栅条4","translation":[0,0.61,-0.22],"mesh":24},{"name":"充电口","translation":[0,0.17,-0.214],"mesh":25},{"name":"顶部感知","translation":[0.0,0.0,0.0],"children":[62,63,64,65,66,67,68,69]},{"name":"立柱","translation":[0,0.705,0],"mesh":26},{"name":"立柱底座","translation":[0,0.703,0],"mesh":27},{"name":"摄像头外壳","translation":[0,1.047,-0.16],"rotation":[0.7071067811865476,0.0,0.0,0.7071067811865476],"mesh":28},{"name":"外壳后端盖","translation":[0,1.047,-0.166],"rotation":[-0.7071067811865476,0.0,0.0,0.7071067811865476],"mesh":29},{"name":"镜头筒","translation":[0,1.047,0.094],"rotation":[0.7071067811865476,0.0,0.0,0.7071067811865476],"mesh":30},{"name":"镜头玻璃","translation":[0,1.047,0.117],"rotation":[0.7071067811865476,0.0,0.0,0.7071067811865476],"mesh":31},{"name":"镜头高光","translation":[0.01,1.058,0.124],"mesh":32},{"name":"状态灯","translation":[-0.044,0.999,0.098],"rotation":[0.7071067811865476,0.0,0.0,0.7071067811865476],"mesh":33}],"meshes":[{"primitives":[{"attributes":{"POSITION":48,"NORMAL":49,"TEXCOORD_0":50},"indices":51,"mode":4,"material":0}]},{"primitives":[{"attributes":{"POSITION":124,"NORMAL":125,"TEXCOORD_0":126},"indices":127,"mode":4,"material":8}]},{"primitives":[{"attributes":{"POSITION":12,"NORMAL":13,"TEXCOORD_0":14},"indices":15,"mode":4,"material":8}]},{"primitives":[{"attributes":{"POSITION":56,"NORMAL":57,"TEXCOORD_0":58},"indices":59,"mode":4,"material":8}]},{"primitives":[{"attributes":{"POSITION":116,"NORMAL":117,"TEXCOORD_0":118},"indices":119,"mode":4,"material":5}]},{"primitives":[{"attributes":{"POSITION":80,"NORMAL":81,"TEXCOORD_0":82},"indices":83,"mode":4,"material":8}]},{"primitives":[{"attributes":{"POSITION":24,"NORMAL":25,"TEXCOORD_0":26},"indices":27,"mode":4,"material":5}]},{"primitives":[{"attributes":{"POSITION":4,"NORMAL":5,"TEXCOORD_0":6},"indices":7,"mode":4,"material":8}]},{"primitives":[{"attributes":{"POSITION":64,"NORMAL":65,"TEXCOORD_0":66},"indices":67,"mode":4,"material":9}]},{"primitives":[{"attributes":{"POSITION":52,"NORMAL":53,"TEXCOORD_0":54},"indices":55,"mode":4,"material":5}]},{"primitives":[{"attributes":{"POSITION":128,"NORMAL":129,"TEXCOORD_0":130},"indices":131,"mode":4,"material":0}]},{"primitives":[{"attributes":{"POSITION":32,"NORMAL":33,"TEXCOORD_0":34},"indices":35,"mode":4,"material":1}]},{"primitives":[{"attributes":{"POSITION":104,"NORMAL":105,"TEXCOORD_0":106},"indices":107,"mode":4,"material":1}]},{"primitives":[{"attributes":{"POSITION":36,"NORMAL":37,"TEXCOORD_0":38},"indices":39,"mode":4,"material":2}]},{"primitives":[{"attributes":{"POSITION":20,"NORMAL":21,"TEXCOORD_0":22},"indices":23,"mode":4,"material":13}]},{"primitives":[{"attributes":{"POSITION":120,"NORMAL":121,"TEXCOORD_0":122},"indices":123,"mode":4,"material":7}]},{"primitives":[{"attributes":{"POSITION":88,"NORMAL":89,"TEXCOORD_0":90},"indices":91,"mode":4,"material":10}]},{"primitives":[{"attributes":{"POSITION":76,"NORMAL":77,"TEXCOORD_0":78},"indices":79,"mode":4,"material":4}]},{"primitives":[{"attributes":{"POSITION":44,"NORMAL":45,"TEXCOORD_0":46},"indices":47,"mode":4,"material":4}]},{"primitives":[{"attributes":{"POSITION":84,"NORMAL":85,"TEXCOORD_0":86},"indices":87,"mode":4,"material":1}]},{"primitives":[{"attributes":{"POSITION":132,"NORMAL":133,"TEXCOORD_0":134},"indices":135,"mode":4,"material":8}]},{"primitives":[{"attributes":{"POSITION":16,"NORMAL":17,"TEXCOORD_0":18},"indices":19,"mode":4,"material":2}]},{"primitives":[{"attributes":{"POSITION":68,"NORMAL":69,"TEXCOORD_0":70},"indices":71,"mode":4,"material":5}]},{"primitives":[{"attributes":{"POSITION":72,"NORMAL":73,"TEXCOORD_0":74},"indices":75,"mode":4,"material":10}]},{"primitives":[{"attributes":{"POSITION":0,"NORMAL":1,"TEXCOORD_0":2},"indices":3,"mode":4,"material":8}]},{"primitives":[{"attributes":{"POSITION":8,"NORMAL":9,"TEXCOORD_0":10},"indices":11,"mode":4,"material":10}]},{"primitives":[{"attributes":{"POSITION":100,"NORMAL":101,"TEXCOORD_0":102},"indices":103,"mode":4,"material":5}]},{"primitives":[{"attributes":{"POSITION":28,"NORMAL":29,"TEXCOORD_0":30},"indices":31,"mode":4,"material":5}]},{"primitives":[{"attributes":{"POSITION":96,"NORMAL":97,"TEXCOORD_0":98},"indices":99,"mode":4,"material":1}]},{"primitives":[{"attributes":{"POSITION":108,"NORMAL":109,"TEXCOORD_0":110},"indices":111,"mode":4,"material":0}]},{"primitives":[{"attributes":{"POSITION":40,"NORMAL":41,"TEXCOORD_0":42},"indices":43,"mode":4,"material":8}]},{"primitives":[{"attributes":{"POSITION":112,"NORMAL":113,"TEXCOORD_0":114},"indices":115,"mode":4,"material":6}]},{"primitives":[{"attributes":{"POSITION":92,"NORMAL":93,"TEXCOORD_0":94},"indices":95,"mode":4,"material":6}]},{"primitives":[{"attributes":{"POSITION":60,"NORMAL":61,"TEXCOORD_0":62},"indices":63,"mode":4,"material":7}]}],"materials":[{"name":"白色哑光外壳","pbrMetallicRoughness":{"baseColorFactor":[0.925,0.929,0.933,1.0],"metallicFactor":0.02,"roughnessFactor":0.34},"doubleSided":false},{"name":"白色亮面面板","pbrMetallicRoughness":{"baseColorFactor":[0.96,0.962,0.966,1.0],"metallicFactor":0.03,"roughnessFactor":0.18},"doubleSided":false},{"name":"黑色玻璃屏","pbrMetallicRoughness":{"baseColorFactor":[0.035,0.038,0.045,1.0],"metallicFactor":0.35,"roughnessFactor":0.09},"doubleSided":false},{"name":"屏幕画面","pbrMetallicRoughness":{"baseColorFactor":[1.0,1.0,1.0,1.0],"metallicFactor":0.0,"roughnessFactor":0.3,"baseColorTexture":{"index":2}},"doubleSided":true,"emissiveFactor":[0.55,0.6,0.66],"emissiveTexture":{"index":2},"extensions":{"KHR_materials_unlit":{}}},{"name":"木纹拉手","pbrMetallicRoughness":{"baseColorFactor":[0.72,0.5,0.28,1.0],"metallicFactor":0.0,"roughnessFactor":0.48},"doubleSided":false},{"name":"不锈钢立柱","pbrMetallicRoughness":{"baseColorFactor":[0.66,0.68,0.7,1.0],"metallicFactor":0.92,"roughnessFactor":0.24},"doubleSided":false},{"name":"镜头玻璃","pbrMetallicRoughness":{"baseColorFactor":[0.02,0.022,0.028,1.0],"metallicFactor":0.55,"roughnessFactor":0.05},"doubleSided":false},{"name":"琥珀色细节","pbrMetallicRoughness":{"baseColorFactor":[0.9,0.4,0.1,1.0],"metallicFactor":0.0,"roughnessFactor":0.42},"doubleSided":false},{"name":"深灰结构件","pbrMetallicRoughness":{"baseColorFactor":[0.155,0.165,0.18,1.0],"metallicFactor":0.15,"roughnessFactor":0.62},"doubleSided":false},{"name":"轮子橡胶","pbrMetallicRoughness":{"baseColorFactor":[0.075,0.078,0.085,1.0],"metallicFactor":0.0,"roughnessFactor":0.85},"doubleSided":false},{"name":"格栅暗槽","pbrMetallicRoughness":{"baseColorFactor":[0.105,0.11,0.12,1.0],"metallicFactor":0.05,"roughnessFactor":0.75},"doubleSided":false},{"name":"屏幕画面(tex_screen_eyes)","pbrMetallicRoughness":{"baseColorTexture":{"index":0},"metallicFactor":0.0,"roughnessFactor":0.3},"emissiveTexture":{"index":0},"emissiveFactor":[0.55,0.6,0.66],"doubleSided":true,"extensions":{"KHR_materials_unlit":{}}},{"name":"屏幕画面(tex_screen_green)","pbrMetallicRoughness":{"baseColorTexture":{"index":1},"metallicFactor":0.0,"roughnessFactor":0.3},"emissiveTexture":{"index":1},"emissiveFactor":[0.55,0.6,0.66],"doubleSided":true,"extensions":{"KHR_materials_unlit":{}}},{"name":"屏幕画面(tex_screen_logo)","pbrMetallicRoughness":{"baseColorTexture":{"index":2},"metallicFactor":0.0,"roughnessFactor":0.3},"emissiveTexture":{"index":2},"emissiveFactor":[0.55,0.6,0.66],"doubleSided":true,"extensions":{"KHR_materials_unlit":{}}},{"name":"屏幕画面(tex_screen_off)","pbrMetallicRoughness":{"baseColorTexture":{"index":3},"metallicFactor":0.0,"roughnessFactor":0.3},"emissiveTexture":{"index":3},"emissiveFactor":[0.55,0.6,0.66],"doubleSided":true,"extensions":{"KHR_materials_unlit":{}}}],"accessors":[{"bufferView":4,"componentType":5126,"count":18,"type":"VEC3","min":[-0.09799999743700027,-0.006000000052154064,-0.004000000189989805],"max":[0.09799999743700027,0.006000000052154064,0.004000000189989805]},{"bufferView":5,"componentType":5126,"count":18,"type":"VEC3"},{"bufferView":6,"componentType":5126,"count":18,"type":"VEC2"},{"bufferView":7,"componentType":5125,"count":96,"type":"SCALAR"},{"bufferView":8,"componentType":5126,"count":54,"type":"VEC3","min":[-0.027000000700354576,0.0,-0.026802999898791313],"max":[0.027000000700354576,0.014000000432133675,0.026802999898791313]},{"bufferView":9,"componentType":5126,"count":54,"type":"VEC3"},{"bufferView":10,"componentType":5126,"count":54,"type":"VEC2"},{"bufferView":11,"componentType":5125,"count":312,"type":"SCALAR"},{"bufferView":12,"componentType":5126,"count":122,"type":"VEC3","min":[-0.032999999821186066,-0.01600000075995922,-0.006000000052154064],"max":[0.032999999821186066,0.01600000075995922,0.006000000052154064]},{"bufferView":13,"componentType":5126,"count":122,"type":"VEC3"},{"bufferView":14,"componentType":5126,"count":122,"type":"VEC2"},{"bufferView":15,"componentType":5125,"count":480,"type":"SCALAR"},{"bufferView":16,"componentType":5126,"count":122,"type":"VEC3","min":[-0.23600000143051147,-0.004000000189989805,-0.2160000056028366],"max":[0.23600000143051147,0.004000000189989805,0.2160000056028366]},{"bufferView":17,"componentType":5126,"count":122,"type":"VEC3"},{"bufferView":18,"componentType":5126,"count":122,"type":"VEC2"},{"bufferView":19,"componentType":5125,"count":480,"type":"SCALAR"},{"bufferView":20,"componentType":5126,"count":122,"type":"VEC3","min":[-0.014999999664723873,-0.02199999988079071,-0.019999999552965164],"max":[0.014999999664723873,0.02199999988079071,0.019999999552965164]},{"bufferView":21,"componentType":5126,"count":122,"type":"VEC3"},{"bufferView":22,"componentType":5126,"count":122,"type":"VEC2"},{"bufferView":23,"componentType":5125,"count":480,"type":"SCALAR"},{"bufferView":24,"componentType":5126,"count":4,"type":"VEC3","min":[-0.15000000596046448,-0.1509999930858612,0.0],"max":[0.15000000596046448,0.1509999930858612,0.0]},{"bufferView":25,"componentType":5126,"count":4,"type":"VEC3"},{"bufferView":26,"componentType":5126,"count":4,"type":"VEC2"},{"bufferView":27,"componentType":5125,"count":6,"type":"SCALAR"},{"bufferView":28,"componentType":5126,"count":38,"type":"VEC3","min":[-0.007499999832361937,0.0,-0.007385999895632267],"max":[0.007499999832361937,0.057999998331069946,0.007385999895632267]},{"bufferView":29,"componentType":5126,"count":38,"type":"VEC3"},{"bufferView":30,"componentType":5126,"count":38,"type":"VEC2"},{"bufferView":31,"componentType":5125,"count":216,"type":"SCALAR"},{"bufferView":32,"componentType":5126,"count":160,"type":"VEC3","min":[-0.029999999329447746,-0.029999999329447746,0.0],"max":[0.029999999329447746,0.029999999329447746,0.012000000104308128]},{"bufferView":33,"componentType":5126,"count":160,"type":"VEC3"},{"bufferView":34,"componentType":5126,"count":160,"type":"VEC2"},{"bufferView":35,"componentType":5125,"count":720,"type":"SCALAR"},{"bufferView":36,"componentType":5126,"count":122,"type":"VEC3","min":[-0.2199999988079071,-0.026000000536441803,-0.00800000037997961],"max":[0.2199999988079071,0.026000000536441803,0.00800000037997961]},{"bufferView":37,"componentType":5126,"count":122,"type":"VEC3"},{"bufferView":38,"componentType":5126,"count":122,"type":"VEC2"},{"bufferView":39,"componentType":5125,"count":480,"type":"SCALAR"},{"bufferView":40,"componentType":5126,"count":146,"type":"VEC3","min":[-0.15700000524520874,-0.15800000727176666,-0.012000000104308128],"max":[0.15700000524520874,0.15800000727176666,0.012000000104308128]},{"bufferView":41,"componentType":5126,"count":146,"type":"VEC3"},{"bufferView":42,"componentType":5126,"count":146,"type":"VEC2"},{"bufferView":43,"componentType":5125,"count":576,"type":"SCALAR"},{"bufferView":44,"componentType":5126,"count":66,"type":"VEC3","min":[-0.035999998450279236,0.0,-0.035999998450279236],"max":[0.035999998450279236,0.026000000536441803,0.035999998450279236]},{"bufferView":45,"componentType":5126,"count":66,"type":"VEC3"},{"bufferView":46,"componentType":5126,"count":66,"type":"VEC2"},{"bufferView":47,"componentType":5125,"count":384,"type":"SCALAR"},{"bufferView":48,"componentType":5126,"count":42,"type":"VEC3","min":[-0.008999999612569809,0.0,-0.008999999612569809],"max":[0.008999999612569809,0.05999999865889549,0.008999999612569809]},{"bufferView":49,"componentType":5126,"count":42,"type":"VEC3"},{"bufferView":50,"componentType":5126,"count":42,"type":"VEC2"},{"bufferView":51,"componentType":5125,"count":240,"type":"SCALAR"},{"bufferView":52,"componentType":5126,"count":146,"type":"VEC3","min":[-0.23399999737739563,-0.07249999791383743,-0.21400000154972076],"max":[0.23399999737739563,0.07249999791383743,0.21400000154972076]},{"bufferView":53,"componentType":5126,"count":146,"type":"VEC3"},{"bufferView":54,"componentType":5126,"count":146,"type":"VEC2"},{"bufferView":55,"componentType":5125,"count":576,"type":"SCALAR"},{"bufferView":56,"componentType":5126,"count":420,"type":"VEC3","min":[-0.03400000184774399,-0.03381400182843208,-0.020999999716877937],"max":[0.03400000184774399,0.03381400182843208,0.020999999716877937]},{"bufferView":57,"componentType":5126,"count":420,"type":"VEC3"},{"bufferView":58,"componentType":5126,"count":420,"type":"VEC2"},{"bufferView":59,"componentType":5125,"count":2340,"type":"SCALAR"},{"bufferView":60,"componentType":5126,"count":98,"type":"VEC3","min":[-0.03099999949336052,-0.004999999888241291,-0.026000000536441803],"max":[0.03099999949336052,0.004999999888241291,0.026000000536441803]},{"bufferView":61,"componentType":5126,"count":98,"type":"VEC3"},{"bufferView":62,"componentType":5126,"count":98,"type":"VEC2"},{"bufferView":63,"componentType":5125,"count":384,"type":"SCALAR"},{"bufferView":64,"componentType":5126,"count":60,"type":"VEC3","min":[-0.007000000216066837,-0.007000000216066837,0.0],"max":[0.007000000216066837,0.007000000216066837,0.006000000052154064]},{"bufferView":65,"componentType":5126,"count":60,"type":"VEC3"},{"bufferView":66,"componentType":5126,"count":60,"type":"VEC2"},{"bufferView":67,"componentType":5125,"count":240,"type":"SCALAR"},{"bufferView":68,"componentType":5126,"count":62,"type":"VEC3","min":[-0.035999998450279236,0.0,-0.03580300137400627],"max":[0.035999998450279236,0.020999999716877937,0.03580300137400627]},{"bufferView":69,"componentType":5126,"count":62,"type":"VEC3"},{"bufferView":70,"componentType":5126,"count":62,"type":"VEC2"},{"bufferView":71,"componentType":5125,"count":360,"type":"SCALAR"},{"bufferView":72,"componentType":5126,"count":42,"type":"VEC3","min":[-0.010999999940395355,0.0,-0.010999999940395355],"max":[0.010999999940395355,0.052000001072883606,0.010999999940395355]},{"bufferView":73,"componentType":5126,"count":42,"type":"VEC3"},{"bufferView":74,"componentType":5126,"count":42,"type":"VEC2"},{"bufferView":75,"componentType":5125,"count":240,"type":"SCALAR"},{"bufferView":76,"componentType":5126,"count":122,"type":"VEC3","min":[-0.10999999940395355,-0.11999999731779099,-0.004999999888241291],"max":[0.10999999940395355,0.11999999731779099,0.004999999888241291]},{"bufferView":77,"componentType":5126,"count":122,"type":"VEC3"},{"bufferView":78,"componentType":5126,"count":122,"type":"VEC2"},{"bufferView":79,"componentType":5125,"count":480,"type":"SCALAR"},{"bufferView":80,"componentType":5126,"count":58,"type":"VEC3","min":[-0.012500000186264515,0.0,-0.012500000186264515],"max":[0.012500000186264515,0.30000001192092896,0.012500000186264515]},{"bufferView":81,"componentType":5126,"count":58,"type":"VEC3"},{"bufferView":82,"componentType":5126,"count":58,"type":"VEC2"},{"bufferView":83,"componentType":5125,"count":336,"type":"SCALAR"},{"bufferView":84,"componentType":5126,"count":98,"type":"VEC3","min":[-0.039000000804662704,-0.023000000044703484,-0.009999999776482582],"max":[0.039000000804662704,0.023000000044703484,0.009999999776482582]},{"bufferView":85,"componentType":5126,"count":98,"type":"VEC3"},{"bufferView":86,"componentType":5126,"count":98,"type":"VEC2"},{"bufferView":87,"componentType":5125,"count":384,"type":"SCALAR"},{"bufferView":88,"componentType":5126,"count":122,"type":"VEC3","min":[-0.125,-0.04500000178813934,-0.009999999776482582],"max":[0.125,0.04500000178813934,0.009999999776482582]},{"bufferView":89,"componentType":5126,"count":122,"type":"VEC3"},{"bufferView":90,"componentType":5126,"count":122,"type":"VEC2"},{"bufferView":91,"componentType":5125,"count":480,"type":"SCALAR"},{"bufferView":92,"componentType":5126,"count":18,"type":"VEC3","min":[-0.14000000059604645,-0.004999999888241291,-0.0020000000949949026],"max":[0.14000000059604645,0.004999999888241291,0.0020000000949949026]},{"bufferView":93,"componentType":5126,"count":18,"type":"VEC3"},{"bufferView":94,"componentType":5126,"count":18,"type":"VEC2"},{"bufferView":95,"componentType":5125,"count":96,"type":"SCALAR"},{"bufferView":96,"componentType":5126,"count":72,"type":"VEC3","min":[-0.013000000268220901,-0.013000000268220901,0.0],"max":[0.013000000268220901,0.013000000268220901,0.0015999999595806003]},{"bufferView":97,"componentType":5126,"count":72,"type":"VEC3"},{"bufferView":98,"componentType":5126,"count":72,"type":"VEC2"},{"bufferView":99,"componentType":5125,"count":288,"type":"SCALAR"},{"bufferView":100,"componentType":5126,"count":74,"type":"VEC3","min":[-0.06499999761581421,0.0,-0.06499999761581421],"max":[0.06499999761581421,0.25999999046325684,0.06499999761581421]},{"bufferView":101,"componentType":5126,"count":74,"type":"VEC3"},{"bufferView":102,"componentType":5126,"count":74,"type":"VEC2"},{"bufferView":103,"componentType":5125,"count":432,"type":"SCALAR"},{"bufferView":104,"componentType":5126,"count":82,"type":"VEC3","min":[-0.01899999938905239,0.0,-0.01899999938905239],"max":[0.01899999938905239,0.2800000011920929,0.01899999938905239]},{"bufferView":105,"componentType":5126,"count":82,"type":"VEC3"},{"bufferView":106,"componentType":5126,"count":82,"type":"VEC2"},{"bufferView":107,"componentType":5125,"count":480,"type":"SCALAR"},{"bufferView":108,"componentType":5126,"count":122,"type":"VEC3","min":[-0.03099999949336052,-0.2029999941587448,-0.00800000037997961],"max":[0.03099999949336052,0.2029999941587448,0.00800000037997961]},{"bufferView":109,"componentType":5126,"count":122,"type":"VEC3"},{"bufferView":110,"componentType":5126,"count":122,"type":"VEC2"},{"bufferView":111,"componentType":5125,"count":480,"type":"SCALAR"},{"bufferView":112,"componentType":5126,"count":74,"type":"VEC3","min":[-0.054999999701976776,0.0,-0.054999999701976776],"max":[0.054999999701976776,0.012000000104308128,0.054999999701976776]},{"bufferView":113,"componentType":5126,"count":74,"type":"VEC3"},{"bufferView":114,"componentType":5126,"count":74,"type":"VEC2"},{"bufferView":115,"componentType":5125,"count":432,"type":"SCALAR"},{"bufferView":116,"componentType":5126,"count":66,"type":"VEC3","min":[-0.029999999329447746,0.0,-0.029999999329447746],"max":[0.029999999329447746,0.006000000052154064,0.029999999329447746]},{"bufferView":117,"componentType":5126,"count":66,"type":"VEC3"},{"bufferView":118,"componentType":5126,"count":66,"type":"VEC2"},{"bufferView":119,"componentType":5125,"count":384,"type":"SCALAR"},{"bufferView":120,"componentType":5126,"count":42,"type":"VEC3","min":[-0.013000000268220901,0.0,-0.013000000268220901],"max":[0.013000000268220901,0.035999998450279236,0.013000000268220901]},{"bufferView":121,"componentType":5126,"count":42,"type":"VEC3"},{"bufferView":122,"componentType":5126,"count":42,"type":"VEC2"},{"bufferView":123,"componentType":5125,"count":240,"type":"SCALAR"},{"bufferView":124,"componentType":5126,"count":18,"type":"VEC3","min":[-0.014999999664723873,-0.014999999664723873,-0.004999999888241291],"max":[0.014999999664723873,0.014999999664723873,0.004999999888241291]},{"bufferView":125,"componentType":5126,"count":18,"type":"VEC3"},{"bufferView":126,"componentType":5126,"count":18,"type":"VEC2"},{"bufferView":127,"componentType":5125,"count":96,"type":"SCALAR"},{"bufferView":128,"componentType":5126,"count":122,"type":"VEC3","min":[-0.22699999809265137,-0.00800000037997961,-0.2070000022649765],"max":[0.22699999809265137,0.00800000037997961,0.2070000022649765]},{"bufferView":129,"componentType":5126,"count":122,"type":"VEC3"},{"bufferView":130,"componentType":5126,"count":122,"type":"VEC2"},{"bufferView":131,"componentType":5125,"count":480,"type":"SCALAR"},{"bufferView":132,"componentType":5126,"count":170,"type":"VEC3","min":[-0.23000000417232513,-0.23499999940395355,-0.20999999344348907],"max":[0.23000000417232513,0.23499999940395355,0.20999999344348907]},{"bufferView":133,"componentType":5126,"count":170,"type":"VEC3"},{"bufferView":134,"componentType":5126,"count":170,"type":"VEC2"},{"bufferView":135,"componentType":5125,"count":672,"type":"SCALAR"},{"bufferView":136,"componentType":5126,"count":122,"type":"VEC3","min":[-0.017999999225139618,-0.026000000536441803,-0.07500000298023224],"max":[0.017999999225139618,0.026000000536441803,0.07500000298023224]},{"bufferView":137,"componentType":5126,"count":122,"type":"VEC3"},{"bufferView":138,"componentType":5126,"count":122,"type":"VEC2"},{"bufferView":139,"componentType":5125,"count":480,"type":"SCALAR"}],"bufferViews":[{"buffer":0,"byteOffset":0,"byteLength":16382},{"buffer":0,"byteOffset":16384,"byteLength":11074},{"buffer":0,"byteOffset":27460,"byteLength":10360},{"buffer":0,"byteOffset":37820,"byteLength":9995},{"buffer":0,"byteOffset":47816,"byteLength":216,"target":34962},{"buffer":0,"byteOffset":48032,"byteLength":216,"target":34962},{"buffer":0,"byteOffset":48248,"byteLength":144,"target":34962},{"buffer":0,"byteOffset":48392,"byteLength":384,"target":34963},{"buffer":0,"byteOffset":48776,"byteLength":648,"target":34962},{"buffer":0,"byteOffset":49424,"byteLength":648,"target":34962},{"buffer":0,"byteOffset":50072,"byteLength":432,"target":34962},{"buffer":0,"byteOffset":50504,"byteLength":1248,"target":34963},{"buffer":0,"byteOffset":51752,"byteLength":1464,"target":34962},{"buffer":0,"byteOffset":53216,"byteLength":1464,"target":34962},{"buffer":0,"byteOffset":54680,"byteLength":976,"target":34962},{"buffer":0,"byteOffset":55656,"byteLength":1920,"target":34963},{"buffer":0,"byteOffset":57576,"byteLength":1464,"target":34962},{"buffer":0,"byteOffset":59040,"byteLength":1464,"target":34962},{"buffer":0,"byteOffset":60504,"byteLength":976,"target":34962},{"buffer":0,"byteOffset":61480,"byteLength":1920,"target":34963},{"buffer":0,"byteOffset":63400,"byteLength":1464,"target":34962},{"buffer":0,"byteOffset":64864,"byteLength":1464,"target":34962},{"buffer":0,"byteOffset":66328,"byteLength":976,"target":34962},{"buffer":0,"byteOffset":67304,"byteLength":1920,"target":34963},{"buffer":0,"byteOffset":69224,"byteLength":48,"target":34962},{"buffer":0,"byteOffset":69272,"byteLength":48,"target":34962},{"buffer":0,"byteOffset":69320,"byteLength":32,"target":34962},{"buffer":0,"byteOffset":69352,"byteLength":24,"target":34963},{"buffer":0,"byteOffset":69376,"byteLength":456,"target":34962},{"buffer":0,"byteOffset":69832,"byteLength":456,"target":34962},{"buffer":0,"byteOffset":70288,"byteLength":304,"target":34962},{"buffer":0,"byteOffset":70592,"byteLength":864,"target":34963},{"buffer":0,"byteOffset":71456,"byteLength":1920,"target":34962},{"buffer":0,"byteOffset":73376,"byteLength":1920,"target":34962},{"buffer":0,"byteOffset":75296,"byteLength":1280,"target":34962},{"buffer":0,"byteOffset":76576,"byteLength":2880,"target":34963},{"buffer":0,"byteOffset":79456,"byteLength":1464,"target":34962},{"buffer":0,"byteOffset":80920,"byteLength":1464,"target":34962},{"buffer":0,"byteOffset":82384,"byteLength":976,"target":34962},{"buffer":0,"byteOffset":83360,"byteLength":1920,"target":34963},{"buffer":0,"byteOffset":85280,"byteLength":1752,"target":34962},{"buffer":0,"byteOffset":87032,"byteLength":1752,"target":34962},{"buffer":0,"byteOffset":88784,"byteLength":1168,"target":34962},{"buffer":0,"byteOffset":89952,"byteLength":2304,"target":34963},{"buffer":0,"byteOffset":92256,"byteLength":792,"target":34962},{"buffer":0,"byteOffset":93048,"byteLength":792,"target":34962},{"buffer":0,"byteOffset":93840,"byteLength":528,"target":34962},{"buffer":0,"byteOffset":94368,"byteLength":1536,"target":34963},{"buffer":0,"byteOffset":95904,"byteLength":504,"target":34962},{"buffer":0,"byteOffset":96408,"byteLength":504,"target":34962},{"buffer":0,"byteOffset":96912,"byteLength":336,"target":34962},{"buffer":0,"byteOffset":97248,"byteLength":960,"target":34963},{"buffer":0,"byteOffset":98208,"byteLength":1752,"target":34962},{"buffer":0,"byteOffset":99960,"byteLength":1752,"target":34962},{"buffer":0,"byteOffset":101712,"byteLength":1168,"target":34962},{"buffer":0,"byteOffset":102880,"byteLength":2304,"target":34963},{"buffer":0,"byteOffset":105184,"byteLength":5040,"target":34962},{"buffer":0,"byteOffset":110224,"byteLength":5040,"target":34962},{"buffer":0,"byteOffset":115264,"byteLength":3360,"target":34962},{"buffer":0,"byteOffset":118624,"byteLength":9360,"target":34963},{"buffer":0,"byteOffset":127984,"byteLength":1176,"target":34962},{"buffer":0,"byteOffset":129160,"byteLength":1176,"target":34962},{"buffer":0,"byteOffset":130336,"byteLength":784,"target":34962},{"buffer":0,"byteOffset":131120,"byteLength":1536,"target":34963},{"buffer":0,"byteOffset":132656,"byteLength":720,"target":34962},{"buffer":0,"byteOffset":133376,"byteLength":720,"target":34962},{"buffer":0,"byteOffset":134096,"byteLength":480,"target":34962},{"buffer":0,"byteOffset":134576,"byteLength":960,"target":34963},{"buffer":0,"byteOffset":135536,"byteLength":744,"target":34962},{"buffer":0,"byteOffset":136280,"byteLength":744,"target":34962},{"buffer":0,"byteOffset":137024,"byteLength":496,"target":34962},{"buffer":0,"byteOffset":137520,"byteLength":1440,"target":34963},{"buffer":0,"byteOffset":138960,"byteLength":504,"target":34962},{"buffer":0,"byteOffset":139464,"byteLength":504,"target":34962},{"buffer":0,"byteOffset":139968,"byteLength":336,"target":34962},{"buffer":0,"byteOffset":140304,"byteLength":960,"target":34963},{"buffer":0,"byteOffset":141264,"byteLength":1464,"target":34962},{"buffer":0,"byteOffset":142728,"byteLength":1464,"target":34962},{"buffer":0,"byteOffset":144192,"byteLength":976,"target":34962},{"buffer":0,"byteOffset":145168,"byteLength":1920,"target":34963},{"buffer":0,"byteOffset":147088,"byteLength":696,"target":34962},{"buffer":0,"byteOffset":147784,"byteLength":696,"target":34962},{"buffer":0,"byteOffset":148480,"byteLength":464,"target":34962},{"buffer":0,"byteOffset":148944,"byteLength":1344,"target":34963},{"buffer":0,"byteOffset":150288,"byteLength":1176,"target":34962},{"buffer":0,"byteOffset":151464,"byteLength":1176,"target":34962},{"buffer":0,"byteOffset":152640,"byteLength":784,"target":34962},{"buffer":0,"byteOffset":153424,"byteLength":1536,"target":34963},{"buffer":0,"byteOffset":154960,"byteLength":1464,"target":34962},{"buffer":0,"byteOffset":156424,"byteLength":1464,"target":34962},{"buffer":0,"byteOffset":157888,"byteLength":976,"target":34962},{"buffer":0,"byteOffset":158864,"byteLength":1920,"target":34963},{"buffer":0,"byteOffset":160784,"byteLength":216,"target":34962},{"buffer":0,"byteOffset":161000,"byteLength":216,"target":34962},{"buffer":0,"byteOffset":161216,"byteLength":144,"target":34962},{"buffer":0,"byteOffset":161360,"byteLength":384,"target":34963},{"buffer":0,"byteOffset":161744,"byteLength":864,"target":34962},{"buffer":0,"byteOffset":162608,"byteLength":864,"target":34962},{"buffer":0,"byteOffset":163472,"byteLength":576,"target":34962},{"buffer":0,"byteOffset":164048,"byteLength":1152,"target":34963},{"buffer":0,"byteOffset":165200,"byteLength":888,"target":34962},{"buffer":0,"byteOffset":166088,"byteLength":888,"target":34962},{"buffer":0,"byteOffset":166976,"byteLength":592,"target":34962},{"buffer":0,"byteOffset":167568,"byteLength":1728,"target":34963},{"buffer":0,"byteOffset":169296,"byteLength":984,"target":34962},{"buffer":0,"byteOffset":170280,"byteLength":984,"target":34962},{"buffer":0,"byteOffset":171264,"byteLength":656,"target":34962},{"buffer":0,"byteOffset":171920,"byteLength":1920,"target":34963},{"buffer":0,"byteOffset":173840,"byteLength":1464,"target":34962},{"buffer":0,"byteOffset":175304,"byteLength":1464,"target":34962},{"buffer":0,"byteOffset":176768,"byteLength":976,"target":34962},{"buffer":0,"byteOffset":177744,"byteLength":1920,"target":34963},{"buffer":0,"byteOffset":179664,"byteLength":888,"target":34962},{"buffer":0,"byteOffset":180552,"byteLength":888,"target":34962},{"buffer":0,"byteOffset":181440,"byteLength":592,"target":34962},{"buffer":0,"byteOffset":182032,"byteLength":1728,"target":34963},{"buffer":0,"byteOffset":183760,"byteLength":792,"target":34962},{"buffer":0,"byteOffset":184552,"byteLength":792,"target":34962},{"buffer":0,"byteOffset":185344,"byteLength":528,"target":34962},{"buffer":0,"byteOffset":185872,"byteLength":1536,"target":34963},{"buffer":0,"byteOffset":187408,"byteLength":504,"target":34962},{"buffer":0,"byteOffset":187912,"byteLength":504,"target":34962},{"buffer":0,"byteOffset":188416,"byteLength":336,"target":34962},{"buffer":0,"byteOffset":188752,"byteLength":960,"target":34963},{"buffer":0,"byteOffset":189712,"byteLength":216,"target":34962},{"buffer":0,"byteOffset":189928,"byteLength":216,"target":34962},{"buffer":0,"byteOffset":190144,"byteLength":144,"target":34962},{"buffer":0,"byteOffset":190288,"byteLength":384,"target":34963},{"buffer":0,"byteOffset":190672,"byteLength":1464,"target":34962},{"buffer":0,"byteOffset":192136,"byteLength":1464,"target":34962},{"buffer":0,"byteOffset":193600,"byteLength":976,"target":34962},{"buffer":0,"byteOffset":194576,"byteLength":1920,"target":34963},{"buffer":0,"byteOffset":196496,"byteLength":2040,"target":34962},{"buffer":0,"byteOffset":198536,"byteLength":2040,"target":34962},{"buffer":0,"byteOffset":200576,"byteLength":1360,"target":34962},{"buffer":0,"byteOffset":201936,"byteLength":2688,"target":34963},{"buffer":0,"byteOffset":204624,"byteLength":1464,"target":34962},{"buffer":0,"byteOffset":206088,"byteLength":1464,"target":34962},{"buffer":0,"byteOffset":207552,"byteLength":976,"target":34962},{"buffer":0,"byteOffset":208528,"byteLength":1920,"target":34963}],"images":[{"name":"tex_screen_eyes","mimeType":"image/png","bufferView":0},{"name":"tex_screen_green","mimeType":"image/png","bufferView":1},{"name":"tex_screen_logo","mimeType":"image/png","bufferView":2},{"name":"tex_screen_off","mimeType":"image/png","bufferView":3}],"samplers":[{"magFilter":9729,"minFilter":9987,"wrapS":33071,"wrapT":33071}],"textures":[{"name":"tex_screen_eyes","sampler":0,"source":0},{"name":"tex_screen_green","sampler":0,"source":1},{"name":"tex_screen_logo","sampler":0,"source":2},{"name":"tex_screen_off","sampler":0,"source":3}],"extensionsUsed":["KHR_materials_unlit"],"buffers":[{"byteLength":210448,"uri":"robot.bin"}]}